<?xml version="1.0" encoding="utf-8"?>
<!-- Generator: Adobe Illustrator 15.1.0, SVG Export Plug-In  -->
<!DOCTYPE svg PUBLIC "-//W3C//DTD SVG 1.1//EN" "http://www.w3.org/Graphics/SVG/1.1/DTD/svg11.dtd" [
	<!ENTITY ns_flows "http://ns.adobe.com/Flows/1.0/">
]>
<svg version="1.1"
	 xmlns="http://www.w3.org/2000/svg" xmlns:xlink="http://www.w3.org/1999/xlink" xmlns:a="http://ns.adobe.com/AdobeSVGViewerExtensions/3.0/"
	 x="0px" y="0px" width="200px" height="200px" viewBox="0 0 200 200" overflow="visible" enable-background="new 0 0 200 200"
	 xml:space="preserve">
<defs>
</defs>
<circle fill="#F0EFEF" cx="100" cy="100" r="100"/>
<path fill="#908F8F" d="M105.95,61.087v20.284c1.365,0,2.73,0,3.766,0h9.583c2.072,0,2.679,1.3,1.35,2.891l-18.229,21.772
	c-1.329,1.587-3.509,1.587-4.838,0L79.354,84.262c-1.331-1.591-0.724-2.891,1.35-2.891h9.581c1.037,0,2.4,0,3.768,0V61.087"/>
<polygon fill="#908F8F" points="145.327,129.021 54.673,129.021 54.673,100 63.765,100 63.765,119.93 136.235,119.93 136.235,100 
	145.327,100 "/>
</svg>
