<?xml version="1.0" encoding="utf-8"?>
<!-- Generator: Adobe Illustrator 15.1.0, SVG Export Plug-In  -->
<!DOCTYPE svg PUBLIC "-//W3C//DTD SVG 1.1//EN" "http://www.w3.org/Graphics/SVG/1.1/DTD/svg11.dtd" [
	<!ENTITY ns_flows "http://ns.adobe.com/Flows/1.0/">
]>
<svg version="1.1"
	 xmlns="http://www.w3.org/2000/svg" xmlns:xlink="http://www.w3.org/1999/xlink" xmlns:a="http://ns.adobe.com/AdobeSVGViewerExtensions/3.0/"
	 x="0px" y="0px" width="200px" height="200px" viewBox="0 -0.199 200 200"
	 overflow="visible" enable-background="new 0 -0.199 200 200" xml:space="preserve">
<defs>
</defs>
<circle fill="#F0EFEF" cx="100" cy="100" r="100"/>
<path fill="#908F8F" d="M95.004,128.484c-3.562,0-6.449,2.891-6.449,6.448c0,3.565,2.888,6.453,6.449,6.453s6.448-2.888,6.448-6.453
	C101.452,131.375,98.565,128.484,95.004,128.484z"/>
<path fill="#908F8F" d="M125.82,128.484c-3.562,0-6.448,2.891-6.448,6.448c0,3.565,2.887,6.453,6.448,6.453s6.449-2.888,6.449-6.453
	C132.27,131.375,129.382,128.484,125.82,128.484z"/>
<path fill="#908F8F" d="M133.396,116.812H88.501l-15.45-45.923c-0.448-1.336-1.701-2.23-3.107-2.23H56.289
	c-1.812,0-3.277,1.467-3.277,3.274c0,1.811,1.466,3.277,3.277,3.277h11.3l15.455,45.923c0.447,1.336,1.697,2.234,3.104,2.234h47.248
	c1.807,0,3.277-1.467,3.277-3.278C136.673,118.278,135.202,116.812,133.396,116.812z"/>
<path fill="#908F8F" d="M140.423,81.065l-55.575-4.844c-1.797-0.156-2.795,1.112-2.22,2.82l9.709,28.839
	c0.578,1.708,2.521,3.106,4.325,3.106h40.568c1.804,0,3.434-1.47,3.626-3.26l2.481-23.121
	C143.53,82.816,142.22,81.222,140.423,81.065z"/>
</svg>
